<svg xmlns="http://www.w3.org/2000/svg" xmlns:xlink="http://www.w3.org/1999/xlink" version="1.1" width="144" height="24" viewBox="0 0 144 24" fill="none" xml:space="preserve">
<desc>Created with Fabric.js 5.2.4</desc>
<defs>
</defs>
<g transform="matrix(1 0 0 1 540 540)" id="e4a13dcd-7278-4d52-a61f-9460c686b045"  >
<rect style="stroke: none; stroke-width: 1; stroke-dasharray: none; stroke-linecap: butt; stroke-dashoffset: 0; stroke-linejoin: miter; stroke-miterlimit: 4; fill: rgb(255,255,255); fill-rule: nonzero; opacity: 1; visibility: hidden;" vector-effect="non-scaling-stroke"  x="-540" y="-540" rx="0" ry="0" width="1080" height="1080" />
</g>
<g transform="matrix(1 0 0 1 540 540)" id="2029c252-25f7-467b-8720-17362ef9d83b"  >
</g>
<g transform="matrix(7.5 0 0 7.5 540 540)"  >
<g style=""   >
		<g transform="matrix(1 0 0 1 -35.31 -0.69)"  >
<path style="stroke: none; stroke-width: 1; stroke-dasharray: none; stroke-linecap: butt; stroke-dashoffset: 0; stroke-linejoin: miter; stroke-miterlimit: 4; fill: rgb(255,255,255); fill-rule: nonzero; opacity: 1;" vector-effect="non-scaling-stroke"  transform=" translate(-36.69, -11.32)" d="M 34.6184 3.1643 C 33.0578 3.1643 31.5947 3.31034 30.4731 3.50507 L 30.4731 19.2779 C 31.3021 19.3753 32.4726 19.4726 33.9844 19.4726 C 36.7643 19.4726 39.0077 18.8398 40.4707 17.5254 C 41.69 16.4057 42.9092 14.4097 42.9092 10.9533 C 42.9092 8.03246 42.0313 6.08519 40.4707 4.81947 C 39.1052 3.74848 37.3007 3.1643 34.6184 3.1643 Z M 34.716 17.0385 C 34.2771 17.0385 33.8381 17.0385 33.5455 16.9899 L 33.5455 5.74442 C 33.8869 5.69574 34.3746 5.59838 35.0086 5.59838 C 37.886 5.59838 39.6417 7.39959 39.6417 11.002 C 39.6417 15.2373 37.6421 17.0385 34.716 17.0385 Z" stroke-linecap="round" />
</g>
		<g transform="matrix(1 0 0 1 -22.56 1.54)"  >
<path style="stroke: none; stroke-width: 1; stroke-dasharray: none; stroke-linecap: butt; stroke-dashoffset: 0; stroke-linejoin: miter; stroke-miterlimit: 4; fill: rgb(255,255,255); fill-rule: nonzero; opacity: 1;" vector-effect="non-scaling-stroke"  transform=" translate(-49.44, -13.53)" d="M 49.7369 7.49696 C 46.323 7.49696 44.421 10.3692 44.421 13.7282 C 44.421 17.3306 46.4693 19.57 50.0783 19.57 C 51.5413 19.57 52.8581 19.3266 53.8335 18.8884 L 53.3946 16.7465 C 52.6143 17.0385 51.6876 17.2333 50.566 17.2333 C 48.9078 17.2333 47.4935 16.4544 47.396 14.4584 L 54.37 14.4584 C 54.4187 14.1176 54.4675 13.6795 54.4675 13.2414 C 54.4187 9.4929 52.5655 7.49696 49.7369 7.49696 Z M 47.3472 12.3164 C 47.4447 11.1481 48.0787 9.63895 49.5418 9.63895 C 51.0536 9.63895 51.5413 11.0994 51.5413 12.3164 L 47.3472 12.3164 Z" stroke-linecap="round" />
</g>
		<g transform="matrix(1 0 0 1 -11.15 1.56)"  >
<path style="stroke: none; stroke-width: 1; stroke-dasharray: none; stroke-linecap: butt; stroke-dashoffset: 0; stroke-linejoin: miter; stroke-miterlimit: 4; fill: rgb(255,255,255); fill-rule: nonzero; opacity: 1;" vector-effect="non-scaling-stroke"  transform=" translate(-60.86, -13.56)" d="M 63.0509 7.74037 L 61.5878 13.3874 C 61.3439 14.4097 61.1489 15.3347 60.9538 16.357 L 60.905 16.357 C 60.7099 15.3347 60.5149 14.4097 60.271 13.3874 L 58.7592 7.74037 L 55.4429 7.74037 L 59.3444 19.3753 L 62.3193 19.3753 L 66.2696 7.74037 L 63.0509 7.74037 Z" stroke-linecap="round" />
</g>
		<g transform="matrix(1 0 0 1 -60.06 2.44)"  >
<path style="stroke: none; stroke-width: 1; stroke-dasharray: none; stroke-linecap: butt; stroke-dashoffset: 0; stroke-linejoin: miter; stroke-miterlimit: 4; fill: rgb(255,255,255); fill-rule: nonzero; opacity: 1;" vector-effect="non-scaling-stroke"  transform=" translate(-11.94, -14.43)" d="M 2.04062 18.2556 C 1.45539 18.9858 1.01647 19.6673 0.723857 20.2515 C 0.626318 20.3976 0.480011 20.8357 0.480011 21.1278 L 0.480011 21.5659 C 0.480011 22.2961 1.06524 22.8803 1.79678 22.8803 L 22.0848 22.8803 C 22.8163 22.8803 23.4015 22.2961 23.4015 21.5659 L 23.4015 5.98783 C 12.2822 7.93509 5.552 13.9229 2.04062 18.2556 Z" stroke-linecap="round" />
</g>
		<g transform="matrix(1 0 0 1 0.52 -0.68)"  >
<path style="stroke: none; stroke-width: 1; stroke-dasharray: none; stroke-linecap: butt; stroke-dashoffset: 0; stroke-linejoin: miter; stroke-miterlimit: 4; fill: rgb(255,255,255); fill-rule: nonzero; opacity: 1;" vector-effect="non-scaling-stroke"  transform=" translate(-72.51, -11.32)" d="M 71.0978 12.3164 L 76.3649 12.3164 L 76.3649 9.78499 L 71.0978 9.78499 L 71.0978 5.89047 L 76.6575 5.89047 L 76.6575 3.31034 L 68.0253 3.31034 L 68.0253 19.3266 L 76.9989 19.3266 L 76.9989 16.7465 L 71.0978 16.7465 L 71.0978 12.3164 Z" stroke-linecap="round" />
</g>
		<g transform="matrix(1 0 0 1 11.38 1.56)"  >
<path style="stroke: none; stroke-width: 1; stroke-dasharray: none; stroke-linecap: butt; stroke-dashoffset: 0; stroke-linejoin: miter; stroke-miterlimit: 4; fill: rgb(255,255,255); fill-rule: nonzero; opacity: 1;" vector-effect="non-scaling-stroke"  transform=" translate(-83.39, -13.56)" d="M 88.6547 7.74037 L 85.3872 7.74037 L 84.363 9.83367 C 84.0704 10.4179 83.7778 11.0507 83.4851 11.6836 L 83.4364 11.6836 C 83.1438 11.0994 82.8512 10.5152 82.5585 9.83367 L 81.4368 7.74037 L 78.023 7.74037 L 81.4856 13.4848 L 77.9742 19.3753 L 81.2905 19.3753 L 82.3635 17.1359 C 82.6561 16.5517 82.9487 15.9189 83.2413 15.286 L 83.2901 15.286 C 83.5827 15.9189 83.8753 16.503 84.1679 17.1359 L 85.3384 19.3753 L 88.801 19.3753 L 85.2896 13.3874 L 88.6547 7.74037 Z" stroke-linecap="round" />
</g>
		<g transform="matrix(1 0 0 1 23.54 3.75)"  >
<path style="stroke: none; stroke-width: 1; stroke-dasharray: none; stroke-linecap: butt; stroke-dashoffset: 0; stroke-linejoin: miter; stroke-miterlimit: 4; fill: rgb(255,255,255); fill-rule: nonzero; opacity: 1;" vector-effect="non-scaling-stroke"  transform=" translate(-95.53, -15.75)" d="M 96.5065 7.49696 C 94.9947 7.49696 93.8242 8.12982 93.0439 9.34686 L 92.9951 9.34686 L 92.8488 7.74037 L 90.1665 7.74037 C 90.2153 8.81136 90.2641 10.0284 90.2641 11.5375 L 90.2641 24 L 93.3365 24 L 93.3365 18.2069 L 93.3853 18.2069 C 93.873 18.9858 94.8484 19.57 96.1164 19.57 C 98.4573 19.57 100.896 17.6714 100.896 13.4361 C 100.945 9.83367 99.0425 7.49696 96.5065 7.49696 Z M 95.4336 17.1359 C 94.4094 17.1359 93.3853 16.3083 93.3853 14.6531 L 93.3853 12.4625 C 93.3853 11.0507 94.3119 9.93103 95.5311 9.93103 C 97.043 9.93103 97.8721 11.4402 97.8721 13.4848 C 97.8233 15.6268 96.9942 17.1359 95.4336 17.1359 Z" stroke-linecap="round" />
</g>
		<g transform="matrix(1 0 0 1 34.23 1.41)"  >
<path style="stroke: none; stroke-width: 1; stroke-dasharray: none; stroke-linecap: butt; stroke-dashoffset: 0; stroke-linejoin: miter; stroke-miterlimit: 4; fill: rgb(255,255,255); fill-rule: nonzero; opacity: 1;" vector-effect="non-scaling-stroke"  transform=" translate(-106.24, -13.41)" d="M 105.919 9.73631 L 105.821 9.73631 L 105.675 7.69168 L 103.042 7.69168 C 103.09 8.714 103.139 9.88235 103.139 11.3428 L 103.139 19.3266 L 106.212 19.3266 L 106.212 13.3387 C 106.212 11.3428 107.285 10.4179 108.65 10.4179 C 108.943 10.4179 109.235 10.4179 109.43 10.4665 L 109.43 7.54564 C 109.235 7.49696 109.04 7.49696 108.748 7.49696 C 107.675 7.49696 106.455 8.22718 105.919 9.73631 Z" stroke-linecap="round" />
</g>
		<g transform="matrix(1 0 0 1 43.55 1.54)"  >
<path style="stroke: none; stroke-width: 1; stroke-dasharray: none; stroke-linecap: butt; stroke-dashoffset: 0; stroke-linejoin: miter; stroke-miterlimit: 4; fill: rgb(255,255,255); fill-rule: nonzero; opacity: 1;" vector-effect="non-scaling-stroke"  transform=" translate(-115.55, -13.53)" d="M 115.868 7.49696 C 112.454 7.49696 110.552 10.3692 110.552 13.7282 C 110.552 17.3306 112.6 19.57 116.209 19.57 C 117.672 19.57 118.989 19.3266 119.965 18.8884 L 119.526 16.7465 C 118.745 17.0385 117.819 17.2333 116.697 17.2333 C 115.039 17.2333 113.625 16.4544 113.527 14.4584 L 120.452 14.4584 C 120.501 14.1176 120.55 13.6795 120.55 13.2414 C 120.55 9.4929 118.697 7.49696 115.868 7.49696 Z M 113.478 12.3164 C 113.576 11.1481 114.21 9.63894 115.673 9.63894 C 117.185 9.63894 117.672 11.0994 117.672 12.3164 L 113.478 12.3164 Z" stroke-linecap="round" />
</g>
		<g transform="matrix(1 0 0 1 53.94 1.41)"  >
<path style="stroke: none; stroke-width: 1; stroke-dasharray: none; stroke-linecap: butt; stroke-dashoffset: 0; stroke-linejoin: miter; stroke-miterlimit: 4; fill: rgb(255,255,255); fill-rule: nonzero; opacity: 1;" vector-effect="non-scaling-stroke"  transform=" translate(-125.94, -13.41)" d="M 126.938 12.3164 C 125.622 11.7323 125.183 11.4402 125.183 10.7586 C 125.183 10.1258 125.67 9.63894 126.646 9.63894 C 127.524 9.63894 128.353 9.97972 128.84 10.2231 L 129.426 8.03245 C 128.743 7.69168 127.719 7.39959 126.548 7.39959 C 123.964 7.39959 122.305 9.00609 122.305 11.0507 C 122.305 12.3164 123.086 13.5335 125.28 14.4097 C 126.548 14.9452 126.938 15.3347 126.938 16.0162 C 126.938 16.7465 126.402 17.1846 125.329 17.1846 C 124.354 17.1846 123.232 16.7465 122.598 16.4057 L 122.013 18.645 C 122.793 19.0832 124.012 19.4239 125.28 19.4239 C 128.206 19.4239 129.865 17.9635 129.865 15.7728 C 129.816 14.2637 128.938 13.144 126.938 12.3164 Z" stroke-linecap="round" />
</g>
		<g transform="matrix(1 0 0 1 63.21 1.41)"  >
<path style="stroke: none; stroke-width: 1; stroke-dasharray: none; stroke-linecap: butt; stroke-dashoffset: 0; stroke-linejoin: miter; stroke-miterlimit: 4; fill: rgb(255,255,255); fill-rule: nonzero; opacity: 1;" vector-effect="non-scaling-stroke"  transform=" translate(-135.2, -13.41)" d="M 136.205 12.3164 C 134.888 11.7323 134.449 11.4402 134.449 10.7586 C 134.449 10.1258 134.937 9.63894 135.912 9.63894 C 136.79 9.63894 137.619 9.97972 138.107 10.2231 L 138.692 8.03245 C 138.009 7.69168 136.985 7.39959 135.814 7.39959 C 133.23 7.39959 131.572 9.00609 131.572 11.0507 C 131.572 12.3164 132.352 13.5335 134.546 14.4097 C 135.814 14.9452 136.205 15.3347 136.205 16.0162 C 136.205 16.7465 135.668 17.1846 134.595 17.1846 C 133.62 17.1846 132.498 16.7465 131.864 16.4057 L 131.279 18.645 C 132.059 19.0832 133.278 19.4239 134.546 19.4239 C 137.473 19.4239 139.131 17.9635 139.131 15.7728 C 139.082 14.2637 138.155 13.144 136.205 12.3164 Z" stroke-linecap="round" />
</g>
		<g transform="matrix(1 0 0 1 -60.06 -5.28)"  >
<path style="stroke: none; stroke-width: 1; stroke-dasharray: none; stroke-linecap: butt; stroke-dashoffset: 0; stroke-linejoin: miter; stroke-miterlimit: 4; fill: rgb(255,255,255); fill-rule: nonzero; opacity: 1;" vector-effect="non-scaling-stroke"  transform=" translate(-11.94, -6.72)" d="M 22.0848 0 L 1.79678 0 C 1.06524 0 0.480011 0.584179 0.480011 1.3144 L 0.480011 13.4361 C 4.47908 9.24949 11.6482 4.62475 22.5237 3.35903 C 22.8163 3.35903 23.4015 3.21298 23.4015 2.43408 L 23.4015 1.3144 C 23.4015 0.584179 22.8163 0 22.0848 0 Z" stroke-linecap="round" />
</g>
		<g transform="matrix(1 0 0 1 69.88 -5.04)"  >
<path style="stroke: none; stroke-width: 1; stroke-dasharray: none; stroke-linecap: butt; stroke-dashoffset: 0; stroke-linejoin: miter; stroke-miterlimit: 4; fill: rgb(255,255,255); fill-rule: nonzero; opacity: 1;" vector-effect="non-scaling-stroke"  transform=" translate(-141.89, -6.96)" d="M 142.057 7.05882 C 142.398 6.96146 142.593 6.76674 142.593 6.47465 C 142.593 6.27992 142.545 6.13387 142.398 6.03651 C 142.252 5.93915 142.057 5.89047 141.764 5.89047 L 141.082 5.89047 L 141.082 8.03246 L 141.52 8.03246 L 141.52 7.15619 L 141.716 7.15619 C 141.862 7.15619 141.959 7.25355 142.008 7.44828 L 142.203 7.98377 L 142.691 7.98377 L 142.447 7.39959 C 142.301 7.20487 142.203 7.05882 142.057 7.05882 Z M 141.764 6.81542 L 141.472 6.81542 L 141.472 6.18256 L 141.716 6.18256 C 142.008 6.18256 142.106 6.27992 142.106 6.47465 C 142.106 6.57201 142.057 6.62069 142.008 6.71805 C 141.959 6.81542 141.911 6.81542 141.764 6.81542 Z" stroke-linecap="round" />
</g>
		<g transform="matrix(1 0 0 1 69.82 -5.04)"  >
<path style="stroke: none; stroke-width: 1; stroke-dasharray: none; stroke-linecap: butt; stroke-dashoffset: 0; stroke-linejoin: miter; stroke-miterlimit: 4; fill: rgb(255,255,255); fill-rule: nonzero; opacity: 1;" vector-effect="non-scaling-stroke"  transform=" translate(-141.81, -6.96)" d="M 143.032 5.74442 C 142.691 5.40365 142.301 5.25761 141.813 5.25761 C 141.325 5.25761 140.886 5.40365 140.594 5.74442 C 140.252 6.08519 140.106 6.47465 140.106 6.96146 C 140.106 7.44828 140.252 7.83773 140.594 8.1785 C 140.935 8.47059 141.325 8.66531 141.813 8.66531 C 142.301 8.66531 142.691 8.51927 143.032 8.1785 C 143.374 7.83773 143.52 7.44828 143.52 6.96146 C 143.52 6.47465 143.374 6.08519 143.032 5.74442 Z M 142.837 7.98377 C 142.545 8.27586 142.203 8.42191 141.813 8.42191 C 141.423 8.42191 141.082 8.27586 140.789 8.03245 C 140.496 7.74037 140.35 7.39959 140.35 7.01014 C 140.35 6.62069 140.496 6.27992 140.789 5.98783 C 141.082 5.69574 141.423 5.5497 141.813 5.5497 C 142.203 5.5497 142.593 5.69574 142.837 5.98783 C 143.13 6.27992 143.276 6.62069 143.276 7.01014 C 143.227 7.35091 143.081 7.69168 142.837 7.98377 Z" stroke-linecap="round" />
</g>
</g>
</g>
<g transform="matrix(12.5 0 0 2.18 631.85 537.11)" id="fc2dae28-610a-422e-8a0d-c2506f238826"  >
<rect style="stroke: rgb(0,0,0); stroke-width: 0; stroke-dasharray: none; stroke-linecap: butt; stroke-dashoffset: 0; stroke-linejoin: miter; stroke-miterlimit: 4; fill: rgb(255,255,255); fill-rule: nonzero; opacity: 1;" vector-effect="non-scaling-stroke"  x="-33.085" y="-33.085" rx="0" ry="0" width="66.17" height="66.17" />
</g>
<g transform="matrix(0.82 0 0 0.82 632.74 534.96)" style="" id="a16fb61b-7f41-4e90-ab79-a0fcdfed248d"  >
		<text xml:space="preserve" font-family="Raleway" font-size="105" font-style="normal" font-weight="900" style="stroke: none; stroke-width: 1; stroke-dasharray: none; stroke-linecap: butt; stroke-dashoffset: 0; stroke-linejoin: miter; stroke-miterlimit: 4; fill: rgb(0,0,0); fill-rule: nonzero; opacity: 1; white-space: pre;" ><tspan x="-447.41" y="32.98" >MyReportingWeb</tspan></text>
</g>
</svg>